<svg version="1.1" id="Layer_1" xmlns="http://www.w3.org/2000/svg" xmlns:xlink="http://www.w3.org/1999/xlink" x="0px" y="0px"
	 width="106.525px" height="106.524px" viewBox="0 0 106.525 106.524" enable-background="new 0 0 106.525 106.524"
	 xml:space="preserve" fill="#A6201F">
<g>
	<g>
		<path fill-rule="evenodd" clip-rule="evenodd" fill="#FFFFFF" d="M53.262,0C23.846,0,0,23.847,0,53.262
			c0,29.417,23.846,53.262,53.262,53.262c29.417,0,53.263-23.846,53.263-53.262C106.525,23.847,82.679,0,53.262,0z M53.262,99.608
			c-25.596,0-46.345-20.75-46.345-46.346c0-25.596,20.749-46.345,46.345-46.345s46.346,20.749,46.346,46.345
			C99.608,78.858,78.858,99.608,53.262,99.608z"/>
	</g>
</g>
<g>
	<g>
		<path fill-rule="evenodd" clip-rule="evenodd" fill="#FFFFFF" d="M53.262,0C23.846,0,0,23.847,0,53.262
			c0,29.417,23.846,53.262,53.262,53.262c29.417,0,53.263-23.846,53.263-53.262C106.525,23.847,82.679,0,53.262,0z M53.262,99.608
			c-25.596,0-46.345-20.75-46.345-46.346c0-25.596,20.749-46.345,46.345-46.345s46.346,20.749,46.346,46.345
			C99.608,78.858,78.858,99.608,53.262,99.608z"/>
	</g>
</g>
<g>
	<path fill-rule="evenodd" clip-rule="evenodd" d="M53.262,0C23.846,0,0,23.847,0,53.262c0,29.417,23.846,53.262,53.262,53.262
		c29.417,0,53.263-23.846,53.263-53.262C106.525,23.847,82.679,0,53.262,0z M53.262,99.608c-25.596,0-46.345-20.75-46.345-46.346
		c0-25.596,20.749-46.345,46.345-46.345s46.346,20.749,46.346,46.345C99.608,78.858,78.858,99.608,53.262,99.608z"/>
</g>
<path d="M65.72,54.987l-10.452,10.66V32.058H50.22v33.589L39.77,54.987l-3.569,3.64L52.745,75.5l16.546-16.873L65.72,54.987z"/>
</svg>
