<svg version="1.1" id="Lager_1" xmlns="http://www.w3.org/2000/svg" xmlns:xlink="http://www.w3.org/1999/xlink" x="0px" y="0px"
	 width="448.467px" height="70.866px" viewBox="0 0 448.467 70.866" enable-background="new 0 0 448.467 70.866"
	 xml:space="preserve">
<g>
	<path fill="#A6201F" d="M57.684,50.064c0,0-6.203,0.888-11.833-2.008c-5.63-2.895-16.603-7.189-24.074-0.794
		c-2.988,2.502-3.021,3.082-2.521,3.549c0.5,0.468,1.121-0.279,2.195-0.747c1.073-0.467,4.295-2.848,7.657-2.335
		c3.362,0.515,12.56,2.942,17.136,4.576C50.819,53.939,55.536,53.754,57.684,50.064"/>
	<path fill="#A6201F" d="M57.738,59.786c0,0-6.203,0.887-11.833-2.009c-5.63-2.895-16.603-7.189-24.074-0.794
		c-2.988,2.502-3.021,3.082-2.521,3.549c0.5,0.468,1.121-0.279,2.195-0.746c1.073-0.468,4.295-2.849,7.657-2.335
		c3.362,0.514,12.56,2.941,17.136,4.575C50.875,63.661,55.59,63.475,57.738,59.786"/>
	<path fill="#A6201F" d="M195.142,26.201v-2.319h-9.107v2.319h3.377v9.441h2.353v-9.441H195.142z M181.102,35.643v-2.302h-6.065
		v-2.839h3.377v-2.285h-3.377v-2.033h5.813v-2.302h-8.165v11.761H181.102z M164.639,29.763c0,2.15-1.126,3.596-3.596,3.596h-1.159
		v-7.191h1.243C163.614,26.167,164.639,27.36,164.639,29.763 M167.058,29.763c0-4.301-2.486-5.881-5.847-5.881h-3.679v11.761h3.511
		C164.068,35.643,167.058,33.896,167.058,29.763 M151.265,35.643V23.882h-2.319v4.973c0,0.656,0.034,2.135,0.034,2.571
		c-0.151-0.302-0.538-0.89-0.823-1.327l-4.167-6.217h-2.252v11.761h2.319v-5.175c0-0.655-0.034-2.133-0.034-2.57
		c0.152,0.303,0.538,0.891,0.824,1.327l4.318,6.418H151.265z M135.555,30.452v-6.57h-2.352v6.604c0,1.882-0.924,3.041-2.419,3.041
		c-1.496,0-2.403-1.193-2.403-3.074v-6.57h-2.352v6.604c0,3.428,1.915,5.343,4.755,5.343
		C133.774,35.828,135.555,33.862,135.555,30.452 M118.102,31.88c0,0.924-0.538,1.529-1.68,1.529h-3.125v-3.041h3.125
		C117.564,30.368,118.102,30.872,118.102,31.88 M117.732,27.175c0,0.656-0.352,1.109-1.327,1.109h-3.108V26.05h2.991
		C117.312,26.05,117.732,26.436,117.732,27.175 M120.522,31.846c0-1.294-0.706-2.149-1.647-2.57
		c0.773-0.471,1.243-1.276,1.243-2.285c0-2.017-1.445-3.108-3.73-3.108h-5.393v11.761h5.343
		C118.858,35.643,120.522,34.315,120.522,31.846 M102.86,27.663c0,1.023-0.588,1.527-1.68,1.527h-3.075v-3.023h3.075
		C102.221,26.167,102.86,26.604,102.86,27.663 M105.279,35.643l-2.251-4.569c1.495-0.588,2.251-1.697,2.251-3.461
		c0-2.503-1.831-3.73-4.049-3.73h-5.477v11.761h2.352v-4.233h2.369l2.1,4.233H105.279z M84.325,21.832
		c0-0.722-0.605-1.311-1.311-1.311s-1.311,0.589-1.311,1.311c0,0.688,0.605,1.294,1.311,1.294S84.325,22.521,84.325,21.832
		 M87.954,21.832c0-0.722-0.605-1.311-1.294-1.311c-0.723,0-1.327,0.589-1.327,1.311c0,0.688,0.604,1.294,1.327,1.294
		C87.349,23.126,87.954,22.521,87.954,21.832 M87.668,29.78c0,2.385-1.092,3.713-2.739,3.713c-1.646,0-2.789-1.361-2.789-3.747
		s1.092-3.713,2.739-3.713S87.668,27.394,87.668,29.78 M90.087,29.746c0-3.797-2.1-6.049-5.158-6.049
		c-3.074,0-5.208,2.284-5.208,6.083c0,3.797,2.1,6.048,5.175,6.048C87.954,35.828,90.087,33.543,90.087,29.746 M75.166,26.184
		v-2.302h-8.418v11.761h2.353v-4.956h3.545v-2.284h-3.545v-2.219H75.166z"/>
	<path fill="#A6201F" d="M448.467,66.051v-3.927H438.12V57.28h5.761v-3.897h-5.761v-3.469h9.917v-3.927h-13.93v20.063H448.467z
		 M425.681,56.02c0,3.669-1.92,6.133-6.133,6.133h-1.978V49.886h2.121C423.933,49.886,425.681,51.921,425.681,56.02 M429.809,56.02
		c0-7.337-4.241-10.032-9.975-10.032h-6.277v20.063h5.991C424.707,66.051,429.809,63.07,429.809,56.02 M402.179,57.768h-4.586
		l1.29-3.641c0.401-1.175,0.802-2.379,1.003-3.124c0.201,0.745,0.603,1.949,1.003,3.124L402.179,57.768z M409.545,66.051
		l-7.624-20.063h-3.897l-7.682,20.063h4.299l1.576-4.472h7.338l1.576,4.472H409.545z M383.578,52.437
		c0,1.749-1.003,2.607-2.866,2.607h-5.245v-5.158h5.245C382.489,49.886,383.578,50.632,383.578,52.437 M387.705,66.051l-3.841-7.796
		c2.551-1.004,3.841-2.895,3.841-5.904c0-4.271-3.124-6.363-6.907-6.363h-9.344v20.063h4.013v-7.223h4.041l3.583,7.223H387.705z
		 M363.028,56.02c0,3.669-1.92,6.133-6.135,6.133h-1.977V49.886h2.121C361.28,49.886,363.028,51.921,363.028,56.02 M367.155,56.02
		c0-7.337-4.242-10.032-9.975-10.032h-6.276v20.063h5.989C362.054,66.051,367.155,63.07,367.155,56.02 M345.459,66.051V45.987
		h-3.956v8.484c0,1.118,0.058,3.64,0.058,4.385c-0.258-0.516-0.916-1.519-1.404-2.264l-7.108-10.605h-3.84v20.063h3.955v-8.827
		c0-1.118-0.058-3.641-0.058-4.386c0.259,0.516,0.918,1.52,1.404,2.265l7.366,10.948H345.459z M323.475,45.987h-4.013v20.063h4.013
		V45.987z M313.73,66.051V45.987h-4.013v7.682h-8.226v-7.682h-4.012v20.063h4.012v-8.427h8.226v8.427H313.73z M292.923,66.051
		v-3.927h-10.347V57.28h5.761v-3.897h-5.761v-3.469h9.917v-3.927h-13.931v20.063H292.923z M274.035,59.975
		c0-4.356-3.526-5.446-6.707-6.191c-3.182-0.745-4.041-1.146-4.041-2.407c0-0.889,0.716-1.806,2.865-1.806
		c1.834,0,3.268,0.745,4.558,2.064l2.896-2.81c-1.893-1.978-4.186-3.152-7.31-3.152c-3.955,0-7.165,2.235-7.165,5.876
		c0,3.954,2.579,5.13,6.277,5.989c3.783,0.86,4.471,1.434,4.471,2.724c0,1.519-1.118,2.178-3.497,2.178
		c-1.92,0-3.726-0.659-5.13-2.293l-2.895,2.58c1.519,2.234,4.442,3.64,7.795,3.64C271.627,66.366,274.035,63.786,274.035,59.975
		 M255.348,66.051v-3.955h-10.06V45.987h-4.013v20.063H255.348z M236.718,66.051v-3.927h-10.347V57.28h5.761v-3.897h-5.761v-3.469
		h9.917v-3.927h-13.929v20.063H236.718z M213.732,52.437c0,1.749-1.003,2.607-2.866,2.607h-5.245v-5.158h5.245
		C212.643,49.886,213.732,50.632,213.732,52.437 M217.859,66.051l-3.841-7.796c2.551-1.004,3.841-2.895,3.841-5.904
		c0-4.271-3.124-6.363-6.907-6.363h-9.344v20.063h4.013v-7.223h4.041l3.582,7.223H217.859z M187.449,42.491
		c0-1.232-1.032-2.235-2.235-2.235c-1.204,0-2.236,1.003-2.236,2.235c0,1.175,1.032,2.207,2.236,2.207
		C186.417,44.698,187.449,43.666,187.449,42.491 M193.64,42.491c0-1.232-1.032-2.235-2.207-2.235c-1.232,0-2.264,1.003-2.264,2.235
		c0,1.175,1.032,2.207,2.264,2.207C192.608,44.698,193.64,43.666,193.64,42.491 M193.153,56.049c0,4.068-1.863,6.334-4.672,6.334
		s-4.758-2.322-4.758-6.393c0-4.069,1.863-6.334,4.672-6.334S193.153,51.979,193.153,56.049 M197.28,55.99
		c0-6.477-3.582-10.317-8.799-10.317c-5.245,0-8.885,3.897-8.885,10.376c0,6.477,3.583,10.317,8.828,10.317
		C193.64,66.366,197.28,62.469,197.28,55.99 M172.087,52.437c0,1.749-1.003,2.607-2.866,2.607h-5.245v-5.158h5.245
		C170.998,49.886,172.087,50.632,172.087,52.437 M176.214,66.051l-3.84-7.796c2.551-1.004,3.84-2.895,3.84-5.904
		c0-4.271-3.124-6.363-6.907-6.363h-9.344v20.063h4.013v-7.223h4.041l3.583,7.223H176.214z M139.986,57.768h-4.585l1.289-3.641
		c0.402-1.175,0.803-2.379,1.003-3.124c0.201,0.745,0.602,1.949,1.004,3.124L139.986,57.768z M147.352,66.051l-7.624-20.063h-3.898
		l-7.681,20.063h4.299l1.577-4.472h7.337l1.577,4.472H147.352z M125.484,58.283v-2.637h-7.194v3.755h3.181
		c-0.229,1.748-1.175,3.038-3.926,3.038c-3.01,0-4.758-2.723-4.758-6.42c0-3.727,1.719-6.363,4.729-6.363
		c2.178,0,3.095,1.118,3.84,2.608l3.812-1.576c-1.318-3.096-3.496-5.016-7.595-5.016c-5.245,0-8.914,4.241-8.914,10.347
		c0,6.334,3.526,10.347,8.771,10.347C122.073,66.366,125.484,63.442,125.484,58.283 M104.274,66.051V45.987h-3.955v8.484
		c0,1.118,0.057,3.64,0.057,4.385c-0.257-0.516-0.917-1.519-1.404-2.264l-7.108-10.605h-3.841v20.063h3.956v-8.827
		c0-1.118-0.058-3.641-0.058-4.386c0.258,0.516,0.917,1.52,1.405,2.265l7.366,10.948H104.274z M82.721,57.194V45.987h-4.013v11.264
		c0,3.21-1.576,5.188-4.127,5.188c-2.551,0-4.098-2.035-4.098-5.245V45.987H66.47v11.264c0,5.848,3.267,9.115,8.111,9.115
		C79.683,66.366,82.721,63.013,82.721,57.194"/>
	<path fill="#A6201F" d="M53.678,0.561c0.733-0.367,2.582-1.157,3.426,0.219c1.35,1.911-3.866,3.519-5.46,7.055
		c-2.675,5.937-0.293,14.914-2.51,20.961c-1.1,3.023-4.012,5.626-7.97,5.682c-7.018,0.127-11.287-5.682-20.045-4.783
		C4.153,31.435-0.099,54.775,13.167,62.947c3.536,2.182,9.326,3.629,14.328,2.493c2.382-0.532,5.442-3.469,6.614-2.035
		c1.723,2.651-3.224,5.626-5.918,6.598c-0.769,0.273-1.777,0.587-2.509,0.678c-13.266,1.686-24.223-8.393-25.506-19.35
		c-0.311-2.766-0.238-6.467,0.458-9.344C3.108,31.745,14.083,22.566,27.953,24.91c2.07,0.367,4.984,1.633,7.292,2.748
		c2.364,1.137,5.607,2.657,7.733,1.815c3.591-1.41,1.063-10.627,2.051-16.619C46.038,6.9,49.006,2.905,53.678,0.561"/>
</g>
</svg>
